<?xml version="1.0" encoding="utf-8" ?>
<svg xmlns="http://www.w3.org/2000/svg" xmlns:xlink="http://www.w3.org/1999/xlink" width="706" height="706">
	<path fill="#FBFBFA" d="M0 0L706 0L706 706L0 706L0 0Z"/>
	<path fill="#4CADAC" d="M342.82 1.896C343.014 1.88142 343.209 1.87014 343.404 1.86164C368.129 0.78385 393.479 3.16106 417.761 7.77359C482.836 19.5 543.271 49.3836 592.095 93.9774C662.855 159.195 701.277 246.8 705.06 342.626C705.626 356.96 704.689 371.544 703.251 385.806C695.783 461.534 663.772 532.747 612.095 588.602C548.307 658.602 458.91 699.814 364.255 702.856C269.271 705.055 183.072 671.56 112.969 607.682C45.8617 545.363 5.87297 459.209 1.59348 367.728C-3.01409 275.085 29.5936 184.441 92.1624 115.963C146.192 56.537 219.099 17.6101 298.538 5.77466C313.227 3.55148 327.994 2.5601 342.82 1.896Z"/>
	<path fill="#2C93BA" d="M134.463 234.857C134.439 234.249 134.421 233.642 134.409 233.034C133.992 213.668 134.185 194.263 134.183 174.892C134.182 164.545 133.17 145.875 135.362 136.439C136.662 130.84 140.054 125.228 144.046 121.134C148.437 116.632 154.279 112.821 160.496 111.504C165.691 110.403 171.555 110.89 176.852 110.904L199.61 110.948L273.822 110.536C286.968 110.429 291.942 116.787 300.674 125.241L314.946 139.014C318.582 142.574 322.134 146.494 326.238 149.507C328.687 151.283 331.367 152.715 334.205 153.762C342.138 156.728 366.193 155.516 375.67 155.512L493.386 155.509L525.327 155.505C531.647 155.503 538.392 154.955 544.626 156.014C551.597 157.249 558.024 160.585 563.046 165.574C574.041 176.496 572.852 189.588 572.849 203.841C573.422 210.377 572.899 217.23 572.862 223.797L572.848 260.351L572.9 382.481L572.9 481.834L572.914 511.337C572.911 517.973 573.213 524.807 572.328 531.391C571.164 540.051 566.521 548.526 560.926 555.121C553.795 563.525 542.179 569.787 531.154 570.657C523.238 571.282 515.055 570.88 507.106 570.878L464.018 570.867L328.904 570.877L225.302 570.877L194.303 570.893C187.417 570.894 180.407 571.194 173.561 570.372C165.222 569.371 157.808 565.725 151.452 560.272C142.29 552.41 135.332 540.188 134.521 528.025C134.053 521.009 134.195 513.908 134.203 506.878L134.221 477.583L134.255 384.17L134.238 280.298C134.301 265.436 133.557 249.6 134.463 234.857Z"/>
	<path fill="#0F506E" d="M134.463 234.857C134.439 234.249 134.421 233.642 134.409 233.034C133.992 213.668 134.185 194.263 134.183 174.892C134.182 164.545 133.17 145.875 135.362 136.439C136.662 130.84 140.054 125.228 144.046 121.134C148.437 116.632 154.279 112.821 160.496 111.504C165.691 110.403 171.555 110.89 176.852 110.904L199.61 110.948L273.822 110.536C286.968 110.429 291.942 116.787 300.674 125.241L314.946 139.014C318.582 142.574 322.134 146.494 326.238 149.507C328.687 151.283 331.367 152.715 334.205 153.762C342.138 156.728 366.193 155.516 375.67 155.512L493.386 155.509L525.327 155.505C531.647 155.503 538.392 154.955 544.626 156.014C551.597 157.249 558.024 160.585 563.046 165.574C574.041 176.496 572.852 189.588 572.849 203.841C572.46 208.625 572.735 213.551 572.614 218.362C569.801 209.718 563.122 202.577 555.09 198.472C550.824 196.268 546.141 194.99 541.347 194.724C535.31 194.374 529.171 194.612 523.126 194.638L495.026 194.648L395.508 194.648L249.493 194.647L198.291 194.65C189.824 194.657 180.571 194.042 172.205 194.899C169.788 195.154 167.407 195.677 165.105 196.458C153.926 200.139 144.326 207.958 139.051 218.548C137.493 221.676 136.317 224.819 135.722 228.264C135.358 230.366 135.279 232.893 134.463 234.857Z"/>
	<path fill="#FD9A43" d="M308.5 285.878C311.974 281.895 315.396 277.841 319.21 274.175C341.006 253.047 369.66 240.442 399.962 238.654C433.786 236.144 467.21 247.253 492.8 269.512C517.861 291.475 533.173 321.581 535.337 354.912C537.053 381.336 528.443 408.504 510.931 428.476C504.449 435.869 496.99 441.672 488.6 446.718C489.785 450.91 489.229 455.403 487.058 459.18C483.728 465.082 477.835 469.178 472.446 473.045C481.813 485.695 490.481 500.913 487.938 517.319C487.445 520.501 486.657 522.399 484.533 524.8C482.251 535.067 481.675 541.594 471.961 547.691C468.384 549.936 464.171 551.585 459.964 552.079C454.736 552.692 449.228 552.386 443.961 552.378L416.88 552.337C388.468 552.34 360.033 552.614 331.623 552.261C325.897 555.571 320.1 558.56 313.805 560.67C301.885 564.664 285.485 566.629 273.899 560.549C272.221 559.668 270.642 558.54 270.136 556.613C269.696 554.94 270.313 553.666 271.105 552.224C263.036 552.601 254.881 552.348 246.799 552.348L205.229 552.366C198.913 552.358 187.015 551.396 182.328 546.699C180.672 546.75 179.696 546.441 178.221 545.717C164.916 539.186 153.946 524.604 149.35 510.748C144.026 494.904 145.236 477.591 152.712 462.642C159.489 449.178 170.311 437.871 184.801 433.026C184.623 426.697 185.733 420.513 187.649 414.491C192.611 398.893 202.501 385.454 214.427 374.451C217.484 371.631 220.671 368.707 224.396 366.787C223.225 358.588 222.418 350.341 221.976 342.07C227.818 342.643 233.695 341.403 238.808 338.518C240.238 344.908 241.113 351.393 242.076 357.866C254.821 352.11 268.16 349.35 282.003 347.985C283.269 346.773 286.206 337.955 287.081 335.717C276.925 327.922 273.354 314.23 278.409 302.468C283.464 290.706 295.856 283.874 308.5 285.878Z"/>
	<path fill="#DE7038" d="M199.776 430.553C204.298 440.551 209.342 449.369 217.278 457.137C220.128 459.927 223.326 462.371 226.14 465.175C239.811 476.232 267.047 484.252 284.382 482.342C284.931 482.285 285.478 482.209 286.022 482.114C293.288 473.796 301.983 466.844 311.696 461.587C321.7 456.233 334.818 452.189 346.287 453.867C348.532 454.195 350.872 454.957 353.047 455.609C361.026 460.407 365.907 466.771 368.169 475.876C372.188 492.057 367.4 511.168 358.892 525.166C352.256 536.084 342.454 545.542 331.623 552.261C325.897 555.571 320.1 558.56 313.805 560.67C301.885 564.664 285.485 566.629 273.899 560.549C272.221 559.668 270.642 558.54 270.136 556.613C269.696 554.94 270.313 553.666 271.105 552.224C263.036 552.601 254.881 552.348 246.799 552.348L205.229 552.366C198.913 552.358 187.015 551.396 182.328 546.699C180.672 546.75 179.696 546.441 178.221 545.717C164.916 539.186 153.946 524.604 149.35 510.748C144.026 494.904 145.236 477.591 152.712 462.642C159.489 449.178 170.311 437.871 184.801 433.026C187.212 432.328 189.607 431.817 192.076 431.366C194.625 431.148 197.268 431.051 199.776 430.553Z"/>
	<path fill="#FD9A43" d="M286.022 482.114C293.288 473.796 301.983 466.844 311.696 461.587C321.7 456.233 334.818 452.189 346.287 453.867C348.532 454.195 350.872 454.957 353.047 455.609C361.026 460.407 365.907 466.771 368.169 475.876C372.188 492.057 367.4 511.168 358.892 525.166C352.256 536.084 342.454 545.542 331.623 552.261C325.897 555.571 320.1 558.56 313.805 560.67C301.885 564.664 285.485 566.629 273.899 560.549C272.221 559.668 270.642 558.54 270.136 556.613C269.696 554.94 270.313 553.666 271.105 552.224C277.649 546.726 299.991 531.787 303.196 525.429C303.758 524.315 303.982 523.37 303.563 522.189C299.359 519.617 278.535 531.577 272.39 532.572C270.516 532.876 268.389 532.778 266.822 531.581C265.655 530.689 265.143 529.382 264.991 527.955C263.578 514.705 277.508 492.469 286.022 482.114Z"/>
	<path fill="#0F506E" d="M226.14 465.175C239.811 476.232 267.047 484.252 284.382 482.342C284.931 482.285 285.478 482.209 286.022 482.114C277.508 492.469 263.578 514.705 264.991 527.955C265.143 529.382 265.655 530.689 266.822 531.581C268.389 532.778 270.516 532.876 272.39 532.572C278.535 531.577 299.359 519.617 303.563 522.189C303.982 523.37 303.758 524.315 303.196 525.429C299.991 531.787 277.649 546.726 271.105 552.224C263.036 552.601 254.881 552.348 246.799 552.348L205.229 552.366C198.913 552.358 187.015 551.396 182.328 546.699C182.96 545.541 183.304 544.397 183.434 543.078C183.764 539.756 183.319 536.193 183.214 532.849C182.966 524.998 182.574 516.661 183.524 508.856C183.836 506.285 184.592 501.741 186.868 500.234C187.326 499.931 187.706 500.109 188.215 500.17C193.242 503.95 194.083 520.701 198.592 526.722C199.387 527.784 200.593 528.852 201.985 528.949C203.87 529.08 205.407 528.04 206.706 526.771C209.571 523.974 211.891 520.124 213.863 516.667C221.822 502.712 225.261 487.937 225.449 471.968C225.423 469.879 225.587 467.189 226.14 465.175Z"/>
	<path fill="#B0522B" d="M199.776 430.553C204.298 440.551 209.342 449.369 217.278 457.137C220.128 459.927 223.326 462.371 226.14 465.175C225.587 467.189 225.423 469.879 225.449 471.968C223.67 471.423 222.074 470.326 220.498 469.353C205.984 460.401 196.89 448.433 192.963 431.866L192.076 431.366C194.625 431.148 197.268 431.051 199.776 430.553Z"/>
	<path fill="#DE7038" d="M287.081 335.717C289.076 337.247 291.267 338.502 293.597 339.448C299.326 341.773 305.665 342.134 311.621 340.477C311.819 343.305 311.439 346.217 310.718 348.956L311.009 349.667C309.23 350.969 307.914 363.257 306.988 366.258C334.501 371.622 358.679 394.041 375.912 415.168C381.2 421.651 386.015 428.547 390.816 435.393C389.763 436.752 376.265 442.978 373.622 444.387C369.69 446.256 365.757 448.131 361.978 450.298C358.978 452.018 356.086 453.967 353.047 455.609C350.872 454.957 348.532 454.195 346.287 453.867C334.818 452.189 321.7 456.233 311.696 461.587C301.983 466.844 293.288 473.796 286.022 482.114C285.478 482.209 284.931 482.285 284.382 482.342C267.047 484.252 239.811 476.232 226.14 465.175C223.326 462.371 220.128 459.927 217.278 457.137C209.342 449.369 204.298 440.551 199.776 430.553C197.268 431.051 194.625 431.148 192.076 431.366C189.607 431.817 187.212 432.328 184.801 433.026C184.623 426.697 185.733 420.513 187.649 414.491C192.611 398.893 202.501 385.454 214.427 374.451C217.484 371.631 220.671 368.707 224.396 366.787C223.225 358.588 222.418 350.341 221.976 342.07C227.818 342.643 233.695 341.403 238.808 338.518C240.238 344.908 241.113 351.393 242.076 357.866C254.821 352.11 268.16 349.35 282.003 347.985C283.269 346.773 286.206 337.955 287.081 335.717Z"/>
	<path fill="#0F506E" d="M287.318 347.765L292.673 347.843C291.726 353.477 290.942 359.199 289.753 364.784C274.053 364.55 258.327 363.855 243.595 370.156L242.076 357.866C254.821 352.11 268.16 349.35 282.003 347.985L287.318 347.765Z"/>
	<path fill="#0F506E" d="M224.396 366.787C225.078 370.391 225.711 374.003 226.296 377.623C216.557 383.571 210.026 388.262 203.997 398.24C201.626 402.164 199.749 406.29 198.695 410.766C197.134 417.327 197.51 424.2 199.776 430.553C197.268 431.051 194.625 431.148 192.076 431.366C189.607 431.817 187.212 432.328 184.801 433.026C184.623 426.697 185.733 420.513 187.649 414.491C192.611 398.893 202.501 385.454 214.427 374.451C217.484 371.631 220.671 368.707 224.396 366.787Z"/>
	<path fill="#FD9A43" d="M287.081 335.717C289.076 337.247 291.267 338.502 293.597 339.448C293.232 342.145 292.79 344.857 292.606 347.573C290.832 347.539 289.069 347.433 287.318 347.765L282.003 347.985C283.269 346.773 286.206 337.955 287.081 335.717Z"/>
	<path fill="#0F506E" d="M293.804 400.61C294.189 400.561 294.576 400.516 294.964 400.501C296.597 400.437 298.901 401.241 300.067 402.393C301.275 403.586 301.684 405.444 301.672 407.087C301.64 411.622 298.316 416.06 295.235 419.161C288.234 426.209 277.946 430.628 268.007 430.659C257.035 430.694 247.776 426.207 240.096 418.575C239.538 417.942 238.973 417.303 238.46 416.632C236.559 414.143 234.547 410.857 235.071 407.612C235.393 405.618 236.528 403.685 238.232 402.566C243.967 398.795 247.416 407.817 250.756 410.813C254.24 413.939 258.685 416.058 263.268 416.957C271.028 418.479 281.587 415.957 286.711 409.648C289.033 406.788 290.335 402.874 293.498 400.803C293.599 400.737 293.702 400.674 293.804 400.61Z"/>
	<path fill="#0F506E" d="M306.988 366.258C307.914 363.257 309.23 350.969 311.009 349.667C342.798 356.288 365.672 374.336 386.191 398.723C404.508 420.493 420.138 445.759 449.56 453.508C450.498 453.706 451.458 453.852 452.335 454.252L452.198 454.69C453.669 456.367 455.661 457.482 457.263 459.03C462.981 463.219 467.783 467.709 472.446 473.045C481.813 485.695 490.481 500.913 487.938 517.319C487.445 520.501 486.657 522.399 484.533 524.8C482.251 535.067 481.675 541.594 471.961 547.691C468.384 549.936 464.171 551.585 459.964 552.079C454.736 552.692 449.228 552.386 443.961 552.378L416.88 552.337C388.468 552.34 360.033 552.614 331.623 552.261C342.454 545.542 352.256 536.084 358.892 525.166C367.4 511.168 372.188 492.057 368.169 475.876C365.907 466.771 361.026 460.407 353.047 455.609C356.086 453.967 358.978 452.018 361.978 450.298C365.757 448.131 369.69 446.256 373.622 444.387C376.265 442.978 389.763 436.752 390.816 435.393C386.015 428.547 381.2 421.651 375.912 415.168C358.679 394.041 334.501 371.622 306.988 366.258Z"/>
	<path fill="#DE7038" d="M417.057 461.77C429.355 478.041 436.597 504.636 433.684 524.866C432.703 531.683 429.496 540.243 423.832 544.555C422.193 545.802 420.325 546.581 418.239 546.241C416.877 546.019 415.113 545.303 414.301 544.141C410.433 538.605 410.772 527.873 409.55 521.244C408.588 516.026 407.249 510.705 405.339 505.749C400.953 494.367 394.279 487.41 387.526 477.881C387.916 477.499 387.764 477.576 388.185 477.384C392.902 475.232 397.467 472.587 402.026 470.112C407.052 467.383 412.169 464.742 417.057 461.77Z"/>
	<path fill="#DE7038" d="M449.56 453.508C450.498 453.706 451.458 453.852 452.335 454.252L452.198 454.69C453.669 456.367 455.661 457.482 457.263 459.03C462.981 463.219 467.783 467.709 472.446 473.045C481.813 485.695 490.481 500.913 487.938 517.319C487.445 520.501 486.657 522.399 484.533 524.8C483.906 525.093 483.269 525.394 482.611 525.611C480.864 526.187 478.93 526.098 477.287 525.254C475.861 524.521 474.741 523.353 473.793 522.081C471.957 519.616 470.57 516.628 469.088 513.933C466.226 508.725 463.399 503.607 459.874 498.799C455.536 492.947 450.617 487.548 445.192 482.685C442.141 479.913 429.711 470.935 428.873 468.371C429 466.416 430.617 465.372 431.974 464.173C435.101 461.452 438.524 459.233 442.226 457.379C444.67 456.156 447.323 455.08 449.56 453.508Z"/>
	<path fill="#B0522B" d="M449.56 453.508C450.498 453.706 451.458 453.852 452.335 454.252L452.198 454.69C453.669 456.367 455.661 457.482 457.263 459.03C456.378 459.295 455.672 459.369 454.748 459.399C450.192 459.543 445.363 460.785 440.983 462.034C438.065 462.866 435.017 464.191 431.974 464.173C435.101 461.452 438.524 459.233 442.226 457.379C444.67 456.156 447.323 455.08 449.56 453.508Z"/>
	<path fill="#B0522B" d="M390.816 435.393C395.149 440.499 399.229 445.816 404.14 450.398C408.29 454.271 413.286 457.546 417.057 461.77C412.169 464.742 407.052 467.383 402.026 470.112C397.467 472.587 392.902 475.232 388.185 477.384C387.764 477.576 387.916 477.499 387.526 477.881C383.23 472.961 378.598 461.13 376.764 454.864C375.773 451.482 375.149 447.546 373.622 444.387C376.265 442.978 389.763 436.752 390.816 435.393Z"/>
	<path fill="#DE7038" d="M457.914 454.815L458.219 453.838C458.087 452.468 457.272 451.746 456.242 450.943C453.644 448.918 450.421 447.419 447.621 445.63C439.106 440.19 431.491 433.943 425.183 425.99C414.315 412.29 409.338 395.498 411.463 378.103C413.36 362.575 420.966 348.898 433.391 339.38C443.001 332.151 455.082 329.019 466.994 330.668C477.48 332.138 486.124 337.464 492.381 345.941C497.679 353.118 500.964 361.865 499.551 370.872C498.763 375.896 496.169 380.56 491.941 383.485C488.316 385.992 483.831 386.727 479.54 385.852C476.677 385.269 473.574 383.854 471.981 381.281C471.021 379.73 470.862 377.909 471.306 376.161C473.418 367.85 481.311 374.654 484.875 371.797C485.651 371.174 486.027 369.937 486.228 369.004C487.191 364.524 484.573 358.558 482.149 354.818C478.627 349.384 473.314 345.854 466.993 344.519C458.645 342.757 450.146 344.751 443.068 349.377C433.958 355.333 427.959 365.4 425.868 375.972C423.193 389.491 426.791 403.925 434.509 415.229C446.652 433.015 467.589 442.899 488.202 446.869L488.6 446.718C489.785 450.91 489.229 455.403 487.058 459.18C483.728 465.082 477.835 469.178 472.446 473.045C467.783 467.709 462.981 463.219 457.263 459.03C455.661 457.482 453.669 456.367 452.198 454.69L452.335 454.252C454.237 454.64 455.983 454.775 457.914 454.815Z"/>
	<path fill="#0F506E" d="M488.202 446.869L488.6 446.718C489.785 450.91 489.229 455.403 487.058 459.18C483.728 465.082 477.835 469.178 472.446 473.045C467.783 467.709 462.981 463.219 457.263 459.03C455.661 457.482 453.669 456.367 452.198 454.69L452.335 454.252C454.237 454.64 455.983 454.775 457.914 454.815C465.343 456.816 481.694 450.554 488.202 446.869Z"/>
	<path fill="#0F506E" d="M287.081 335.717C276.925 327.922 273.354 314.23 278.409 302.468C283.464 290.706 295.856 283.874 308.5 285.878C321.5 287.939 331.306 298.78 332.057 311.92C332.808 325.06 324.301 336.948 311.621 340.477C305.665 342.134 299.326 341.773 293.597 339.448C291.267 338.502 289.076 337.247 287.081 335.717Z"/>
	<path fill="#FBFBFA" d="M306.529 298.748C310.007 297.65 313.714 299.591 314.793 303.074C315.871 306.557 313.91 310.253 310.421 311.313C306.959 312.364 303.298 310.421 302.228 306.965C301.158 303.51 303.08 299.838 306.529 298.748Z"/>
	<path fill="#0F506E" d="M221.976 342.07C207.941 340.694 197.009 329.285 196.232 315.204C195.456 301.124 205.067 288.582 218.865 285.67C232.663 282.758 246.522 290.347 251.501 303.541C256.48 316.735 251.09 331.588 238.808 338.518C233.695 341.403 227.818 342.643 221.976 342.07Z"/>
	<path fill="#FBFBFA" d="M226.758 298.739C229.043 298.08 231.506 298.709 233.195 300.383C234.885 302.056 235.537 304.513 234.9 306.804C234.262 309.096 232.436 310.863 230.125 311.424C226.655 312.267 223.148 310.181 222.232 306.73C221.316 303.278 223.327 299.728 226.758 298.739Z"/>
</svg>
